PathFileType	4	(X/Y/Z)	./resultDataOpenSim/trcMotMarkerGrf/sub09/qtm-13-03.trc
DataRate	CameraRate	NumFrames	NumMarkers	Units	OrigDataRate	OrigDataStartFrame	OrigNumFrames
250.000000	250.000000	10	24	m	250.000000	192	510
Frame#	Time	L.Toe.Tip			R.Toe.Tip			L.Ankle.Lat			R.Ankle.Lat			L.Ankle.Med			R.Ankle.Med			L.Heel			R.Heel			L.Knee.Lat			R.Knee.Lat			L.Knee.Med			R.Knee.Med			L.Thigh.Upper			R.Thigh.Upper			L.ASIS			R.ASIS			V.Sacral			L.Acromium			R.Acromium			C7			L.Elbow			R.Elbow			L.Wrist.Lat			R.Wrist.Lat
		X1	Y1	Z1	X2	Y2	Z2	X3	Y3	Z3	X4	Y4	Z4	X5	Y5	Z5	X6	Y6	Z6	X7	Y7	Z7	X8	Y8	Z8	X9	Y9	Z9	X10	Y10	Z10	X11	Y11	Z11	X12	Y12	Z12	X13	Y13	Z13	X14	Y14	Z14	X15	Y15	Z15	X16	Y16	Z16	X17	Y17	Z17	X18	Y18	Z18	X19	Y19	Z19	X20	Y20	Z20	X21	Y21	Z21	X22	Y22	Z22	X23	Y23	Z23	X24	Y24	Z24

192	0.764	0.086134586	-0.0099854382	0.011760992	-0.60060326	0.06345525	0.064208779	-0.057148229	0.022334419	-0.048680074	-0.65916402	0.20655201	0.10787328	-0.050042392	0.044198873	0.048730373	-0.5962094	0.20996586	0.027399589	-0.1336897	-0.014459518	-0.010773364	-0.69741671	0.24699449	0.04603402	-0.0077094895	0.43470158	-0.10622701	-0.2666801	0.42710805	0.19663381	-0.021193111	0.44035349	0.018682677	-0.24950104	0.39843489	0.071406597	-0.18143379	0.81644776	-0.1672736	-0.24835205	0.82633412	0.20301299	-0.1175444	0.9066565	-0.097046462	-0.13683668	0.90737678	0.14162803	-0.29647348	0.95621538	0.00058571616	-0.16400754	1.3564839	-0.16041104	-0.1935078	1.3732323	0.17089248	-0.24150734	1.4129845	0.0011942327	-0.32625377	1.0333382	-0.2137286	-0.3216116	1.0321247	0.26293004	-0.22776836	0.78984691	-0.26222978	-0.14062854	0.82876961	0.30400438
193	0.768	0.086044405	-0.010114323	0.011889605	-0.5939521	0.066432466	0.066111088	-0.056943733	0.021957063	-0.048854578	-0.64833509	0.21142875	0.10926301	-0.050329548	0.044019663	0.048669188	-0.58559135	0.21407707	0.028856333	-0.13380187	-0.014540494	-0.010991022	-0.6859105	0.25348232	0.048286387	-0.0039912134	0.43353295	-0.10678688	-0.2532293	0.42626462	0.19741451	-0.015676643	0.43886868	0.018337072	-0.23709293	0.39785586	0.071878984	-0.17661516	0.81667093	-0.16747296	-0.24164793	0.8257653	0.20278591	-0.11148115	0.90765295	-0.097834151	-0.13095335	0.90727896	0.14104008	-0.2905496	0.95649515	0.001108798	-0.15655763	1.356487	-0.16056849	-0.18651091	1.3733559	0.17066811	-0.23458472	1.4129922	0.00087779037	-0.31804669	1.033146	-0.21442517	-0.31620488	1.0328232	0.26194313	-0.21970337	0.78957728	-0.26261629	-0.13702492	0.82813749	0.30423061
194	0.772	0.086022161	-0.010216244	0.011997718	-0.5863624	0.069745408	0.068197615	-0.05665881	0.021605111	-0.048914265	-0.63702388	0.2161701	0.11054841	-0.050298219	0.043935235	0.048637095	-0.57470517	0.21833563	0.030165141	-0.13385382	-0.014626218	-0.01087995	-0.67419128	0.25980363	0.050353195	-0.00056169427	0.43226661	-0.10716879	-0.23979253	0.42548501	0.19800402	-0.010409088	0.43723813	0.0180532	-0.22471555	0.39751892	0.072103235	-0.17164797	0.81686714	-0.1675354	-0.23494221	0.8251783	0.20255442	-0.10549014	0.90858445	-0.098558687	-0.12513154	0.90723611	0.14056036	-0.28451693	0.95686766	0.001451526	-0.14908984	1.3564933	-0.16070266	-0.17947263	1.3735095	0.17048671	-0.22764992	1.4130648	0.00053676802	-0.30994586	1.0329654	-0.21517518	-0.31080281	1.0335759	0.26103421	-0.21149907	0.78934612	-0.26294018	-0.13341656	0.82753485	0.30444343
195	0.776	0.086086578	-0.010302005	0.012090994	-0.57768478	0.073410098	0.070546095	-0.056279154	0.021334525	-0.048848832	-0.62536146	0.22087943	0.11169726	-0.049973131	0.043913408	0.048664769	-0.56356317	0.2227348	0.031293756	-0.13382933	-0.014637778	-0.010531974	-0.6624198	0.26590284	0.052211922	0.0026841157	0.43083033	-0.10728823	-0.22656937	0.42481058	0.19839876	-0.0055623019	0.43554549	0.017832306	-0.21234941	0.39746845	0.072101358	-0.16649665	0.81709287	-0.1675792	-0.22822764	0.8246002	0.20231633	-0.099585504	0.90938667	-0.099224168	-0.11937456	0.90727716	0.14019497	-0.2783636	0.95734285	0.0015412445	-0.14161263	1.3565008	-0.16080706	-0.17244556	1.373701	0.17033992	-0.22071248	1.4132543	0.00016438927	-0.30197347	1.0327845	-0.21591752	-0.30540968	1.0343596	0.26021282	-0.20319202	0.789154	-0.26321827	-0.12975477	0.82696602	0.30464293
196	0.78	0.086200928	-0.01038423	0.012179811	-0.56784918	0.077395455	0.073258055	-0.055850776	0.021175877	-0.048698324	-0.61347838	0.22563588	0.11276228	-0.049527886	0.043887929	0.048760758	-0.55217672	0.22719897	0.032269878	-0.13375256	-0.014514815	-0.010163675	-0.6506275	0.27167843	0.053806586	0.0058237878	0.42925156	-0.10719562	-0.21349797	0.42431356	0.19858783	-0.0013088674	0.43390849	0.017656031	-0.20002536	0.39773973	0.072005072	-0.1611405	0.81740098	-0.16769293	-0.22149022	0.82406061	0.20206576	-0.093770144	0.91003438	-0.099848158	-0.11369971	0.90742821	0.13993088	-0.27222276	0.95794026	0.0013925016	-0.13412822	1.3565225	-0.16087146	-0.16547551	1.3739466	0.17022128	-0.21379027	1.4135801	-0.00021731877	-0.29407142	1.032589	-0.21663413	-0.3000276	1.0351519	0.25948688	-0.19482825	0.78900635	-0.26345935	-0.12601641	0.82644088	0.30484196
197	0.784	0.086315213	-0.010463469	0.012264136	-0.55693977	0.081612279	0.07637325	-0.055446335	0.021111995	-0.048525531	-0.60144323	0.23045145	0.11381902	-0.049121712	0.043827389	0.048904685	-0.54054708	0.23163905	0.033137216	-0.13367223	-0.014271283	-0.0099372758	-0.63863707	0.2769648	0.055034192	0.0088640167	0.42772357	-0.10704771	-0.20048969	0.42405076	0.19852885	0.0022729933	0.43248432	0.017525761	-0.18785739	0.39832096	0.072061126	-0.15557547	0.81780956	-0.16790814	-0.21470279	0.82358313	0.20179352	-0.088039326	0.91053345	-0.10045047	-0.1081206	0.90770299	0.13973911	-0.26627596	0.95866247	0.0010989953	-0.12663412	1.3565739	-0.16088895	-0.15859563	1.3742625	0.17013043	-0.20689166	1.4140222	-0.00058550844	-0.28620622	1.0323871	-0.21733774	-0.29466467	1.0359481	0.2588612	-0.18642635	0.78891176	-0.26365735	-0.12223286	0.82595846	0.30505043
198	0.788	0.086397456	-0.010527015	0.012329378	-0.54512994	0.085954911	0.079814394	-0.055122419	0.021090404	-0.048385472	-0.58921132	0.23525397	0.11487221	-0.04881843	0.043746928	0.049058571	-0.52867616	0.23597014	0.033903866	-0.13362971	-0.013989189	-0.0098777077	-0.62625126	0.28164535	0.055854657	0.011782096	0.42648137	-0.10694934	-0.18750435	0.42404512	0.19818448	0.005230119	0.43142503	0.017479779	-0.17592225	0.39914589	0.072429011	-0.14981125	0.81828174	-0.16820004	-0.20785522	0.82319282	0.20149529	-0.082373691	0.91091077	-0.10103272	-0.10262416	0.90810777	0.13959131	-0.26057309	0.95943124	0.00074336418	-0.11913597	1.3566613	-0.1608607	-0.15183581	1.3746554	0.17007056	-0.20002964	1.4145584	-0.00092396061	-0.27838063	1.0322085	-0.21806091	-0.28931368	1.0367621	0.25833021	-0.17798584	0.78887772	-0.26380211	-0.11850076	0.82549559	0.30526114
199	0.792	0.086436469	-0.010564933	0.012365647	-0.53259271	0.090332597	0.083452655	-0.054893905	0.021061635	-0.048308261	-0.57669106	0.23994114	0.11587382	-0.048614188	0.043673296	0.0491809	-0.51655166	0.24005345	0.03458226	-0.13363529	-0.013752065	-0.009933484	-0.61351285	0.28579511	0.056385878	0.014574812	0.42565287	-0.10692896	-0.17440306	0.42432112	0.19761324	0.007669292	0.43080869	0.017555289	-0.16405882	0.40014052	0.072913282	-0.14388529	0.81874126	-0.16851344	-0.20099132	0.82292019	0.20118501	-0.076740705	0.911211	-0.10157331	-0.097181187	0.90864642	0.13946893	-0.25504099	0.96008559	0.0003322335	-0.11164714	1.356788	-0.16078652	-0.14522511	1.3751222	0.17003934	-0.19322795	1.4151898	-0.0012269708	-0.27060096	1.0320859	-0.21883408	-0.28392312	1.0376109	0.25787245	-0.16950405	0.78891295	-0.2638841	-0.11494325	0.82502342	0.30546288
200	0.796	0.086433391	-0.010580124	0.012383339	-0.51950359	0.094659997	0.087203944	-0.054741046	0.021009776	-0.048298744	-0.56382491	0.24444453	0.11678675	-0.04848571	0.043622917	0.049244551	-0.50413987	0.24373233	0.03524942	-0.13367386	-0.013594361	-0.010051478	-0.6006629	0.28960207	0.056827461	0.017280293	0.42523147	-0.10701775	-0.16086807	0.42493021	0.19701991	0.0096824502	0.43060054	0.017742698	-0.1519276	0.40127717	0.073118231	-0.13787702	0.81911167	-0.16879793	-0.19419315	0.8228012	0.20088865	-0.071117007	0.9114957	-0.10204814	-0.091771802	0.90932159	0.13936106	-0.24956811	0.96054033	-0.0001708189	-0.10418484	1.3569645	-0.16065882	-0.13878117	1.3756603	0.17003	-0.18651847	1.4159242	-0.0014974284	-0.26286802	1.0320427	-0.21966988	-0.27845019	1.038504	0.25746287	-0.16098373	0.78903216	-0.26389581	-0.11160553	0.82454389	0.30565728
201	0.8	0.086397443	-0.010582641	0.012402077	-0.50604986	0.098865251	0.091012077	-0.054634471	0.020950523	-0.048342114	-0.55061258	0.24874351	0.11761844	-0.048412804	0.043601416	0.049250554	-0.49144224	0.24697981	0.035991999	-0.13372585	-0.013497697	-0.010205138	-0.58788295	0.29316695	0.057324154	0.019958627	0.4250805	-0.10719595	-0.1466512	0.42592863	0.19668026	0.011347157	0.43067445	0.017982468	-0.13929462	0.40257348	0.072890521	-0.13187733	0.81935684	-0.1690341	-0.18752295	0.82287839	0.20061753	-0.065513148	0.91182505	-0.10245098	-0.086389089	0.91013963	0.13925947	-0.24400236	0.96094609	-0.00075204056	-0.096775918	1.35721	-0.16047552	-0.13250409	1.3762773	0.17003964	-0.17992942	1.4167493	-0.0017349884	-0.25518198	1.0320882	-0.22055989	-0.27295041	1.0394415	0.25709233	-0.15243203	0.78925579	-0.26383487	-0.10837308	0.82410799	0.30585963
